<?xml version="1.0" standalone="no"?><!DOCTYPE svg PUBLIC "-//W3C//DTD SVG 1.1//EN" "http://www.w3.org/Graphics/SVG/1.1/DTD/svg11.dtd"><svg t="1567241802001" class="icon" viewBox="0 0 1024 1024" version="1.1" xmlns="http://www.w3.org/2000/svg" p-id="5927" xmlns:xlink="http://www.w3.org/1999/xlink" width="200" height="200"><defs><style type="text/css"></style></defs><path d="M720.245 790.228l-12.896 1.406c-2.041 0.222-3.944 0.487-5.784 0.744-3.222 0.45-6.011 0.838-8.49 0.85-2.8-0.04-5.873-0.48-9.425-0.99-2.048-0.293-4.166-0.597-6.419-0.848l-12.95-1.444-88.188 162.85-31.507-88.73-92.877 20.99 98.88-178.771-3.901-8.793c-9.532-21.48-14.31-43.734-14.203-66.147 0.251-88.562 72.508-160.582 161.069-160.582l0.723 0.002c43.101 0.15 83.54 17.065 113.883 47.63 30.337 30.558 46.955 71.096 46.789 114.146-0.109 22.296-4.83 44.096-14.035 64.772l-3.855 8.658 96.975 180.876-86.29-12.574-38.591 79.496-88.908-163.541z m85.692-47.687c-16.996 16.997-30.474 24.364-50.875 35.516l-16.944 9.261 74.881 137.597 25.39-64.051 66.65 9.758-80.936-146.25-18.166 18.169zM570.974 909.016l69.6-127.256-17.725-9.756c-16.736-9.209-27.792-15.294-41.506-29.141l-18.118-18.294-76.932 138.12 63.28-14.16 21.401 60.487z m122.373-412.313c-73.932 0-134.258 60.164-134.477 134.115-0.371 74.128 59.756 134.798 134.033 135.204h0.4c74.053 0 134.503-60.228 134.756-134.26 0.145-35.898-13.734-69.736-39.08-95.27-25.344-25.534-59.078-39.664-94.986-39.788l-0.646-0.001zM131.377 897.4c-24.187 0-43.864-20.57-43.864-45.856V150.882c0-25.285 19.677-45.856 43.864-45.856h658.408c24.187 0 43.864 20.57 43.864 45.856v238.43c0 4.146 0 8.061-9.367 8.061-0.157 0-0.29-0.002-0.396-0.005l-1.833-0.224-0.805 0.181c-1.897-0.007-5.798-0.417-8.62-1.926-1.476-0.79-3.498-1.87-3.498-8.074v-204.46c0-31.37-22.39-51.64-57.043-51.64-1.757 0-3.156 0.063-4.088 0.12l-581.288-1.736c-0.773-0.05-1.82-0.093-3.084-0.093-25.65 0-51.532 16.798-51.532 54.33v639.033c0 28.609 17.221 47.978 42.854 48.2 64.399 0.575 179.655 1.548 203.108 1.548 7.45 0 9.458 2.63 10.756 5.093 1.64 3.115 1.946 6.66 1.946 6.66l0.024 1.644 0.127 0.615c0.085 1.506-0.121 5.353-2.021 7.438-1.926 2.112-6.59 3.324-12.796 3.324H131.377z m122.63-153.571c-6.644 0-12.256-5.615-12.256-12.261 0-6.644 5.612-12.255 12.255-12.255h177.467c6.644 0 12.257 5.611 12.257 12.255 0 6.646-5.613 12.261-12.257 12.261H254.006z m0-153.572c-6.644 0-12.256-5.615-12.256-12.26 0-6.644 5.612-12.258 12.255-12.258h177.467c6.644 0 12.257 5.614 12.257 12.258 0 6.645-5.613 12.26-12.257 12.26H254.006z m0-153.57c-6.644 0-12.256-5.615-12.256-12.263 0-6.643 5.612-12.256 12.255-12.256h295.357c6.644 0 12.257 5.613 12.257 12.256 0 6.647-5.612 12.263-12.257 12.263H254.006z m0-153.572c-6.644 0-12.256-5.613-12.256-12.256 0-6.646 5.612-12.261 12.255-12.261h381.542c6.646 0 12.261 5.615 12.261 12.26 0 6.644-5.615 12.257-12.261 12.257H254.006z" p-id="5928"></path></svg>